<?xml version="1.0" standalone="no"?>
<!DOCTYPE svg PUBLIC "-//W3C//DTD SVG 20010904//EN"
 "http://www.w3.org/TR/2001/REC-SVG-20010904/DTD/svg10.dtd">
<svg version="1.0" xmlns="http://www.w3.org/2000/svg"
 width="700.000000pt" height="700.000000pt" viewBox="0 0 700.000000 700.000000"
 preserveAspectRatio="xMidYMid meet">
<metadata>
Created by potrace 1.14, written by Peter Selinger 2001-2017
</metadata>
<g transform="translate(0.000000,700.000000) scale(0.100000,-0.100000)"
fill="#000000" stroke="none">
<path d="M6400 6980 c-30 -10 -201 -64 -380 -120 -179 -56 -422 -132 -540
-170 -118 -38 -282 -90 -365 -115 -82 -26 -197 -62 -255 -80 -58 -19 -134 -43
-170 -54 -285 -88 -1007 -315 -1024 -321 -12 -5 -118 -39 -236 -75 -118 -37
-269 -84 -335 -105 -66 -21 -167 -52 -225 -70 -58 -17 -181 -56 -275 -85 -93
-30 -278 -87 -410 -129 -132 -41 -341 -107 -465 -146 -331 -105 -448 -142
-615 -195 -82 -26 -184 -58 -225 -72 -156 -51 -170 -53 -410 -53 l-228 0 0
-2499 c0 -2460 0 -2499 20 -2542 23 -53 49 -82 103 -118 l40 -26 3077 -3 3077
-2 53 24 c63 28 90 53 120 109 l23 42 2 2025 2 2026 -2507 -1 -2507 0 -32 34
c-17 18 -59 68 -92 111 l-60 78 37 10 c20 5 154 47 297 92 143 45 294 92 335
105 41 13 138 43 215 68 192 63 438 140 450 143 6 1 89 27 185 57 96 31 227
71 290 90 99 30 657 206 700 220 46 16 940 298 960 303 20 5 151 45 270 82 52
17 212 67 355 112 143 45 357 112 475 150 118 38 289 92 380 120 91 28 176 55
190 60 14 4 33 11 42 14 16 5 16 9 3 48 -7 24 -27 86 -43 138 -73 232 -127
405 -170 540 -26 80 -47 147 -47 150 -3 20 -18 50 -23 49 -4 0 -32 -9 -62 -19z"/>
</g>
</svg>
